<svg xmlns="http://www.w3.org/2000/svg" xmlns:xlink="http://www.w3.org/1999/xlink" contentStyleType="text/css" data-diagram-type="CLASS" height="153px" preserveAspectRatio="none" style="width:187px;height:153px;background:#FFFFFF;" version="1.1" viewBox="0 0 187 153" width="187px" zoomAndPan="magnify"><defs/><g><!--class library--><g class="entity" data-entity="library" data-source-line="11" data-uid="ent0002" id="entity_library"><rect fill="#F1F1F1" height="40.2656" rx="2.5" ry="2.5" style="stroke:#181818;stroke-width:0.5;" width="69.1133" x="7" y="7"/><text fill="#000000" font-family="sans-serif" font-size="12" font-style="italic" lengthAdjust="spacing" textLength="67.1133" x="8" y="23.1387">&#171;resource&#187;</text><text fill="#000000" font-family="sans-serif" font-size="14" lengthAdjust="spacing" textLength="45.042" x="19.0356" y="38.9639">library</text></g><!--class member--><g class="entity" data-entity="member" data-source-line="12" data-uid="ent0003" id="entity_member"><rect fill="#F1F1F1" height="40.2656" rx="2.5" ry="2.5" style="stroke:#181818;stroke-width:0.5;" width="69.1133" x="111" y="7"/><text fill="#000000" font-family="sans-serif" font-size="12" font-style="italic" lengthAdjust="spacing" textLength="67.1133" x="112" y="23.1387">&#171;resource&#187;</text><text fill="#000000" font-family="sans-serif" font-size="14" lengthAdjust="spacing" textLength="59.1445" x="115.9844" y="38.9639">member</text></g><!--class book--><g class="entity" data-entity="book" data-source-line="13" data-uid="ent0004" id="entity_book"><rect fill="#F1F1F1" height="40.2656" rx="2.5" ry="2.5" style="stroke:#181818;stroke-width:0.5;" width="69.1133" x="59" y="107.26"/><text fill="#000000" font-family="sans-serif" font-size="12" font-style="italic" lengthAdjust="spacing" textLength="67.1133" x="60" y="123.3987">&#171;resource&#187;</text><text fill="#000000" font-family="sans-serif" font-size="14" lengthAdjust="spacing" textLength="34.125" x="76.4941" y="139.2239">book</text></g><!--link library to member--><g class="link" data-entity-1="library" data-entity-2="member" data-source-line="15" data-uid="lnk5" id="link_library_member"><path codeLine="15" d="M84.48,27.53 C95.45,27.53 81.57,27.53 92.55,27.53" fill="none" id="library-member" style="stroke:#181818;stroke-width:1;"/><line style="stroke:#181818;stroke-width:1;" x1="80.48" x2="80.48" y1="31.53" y2="23.53"/><line style="stroke:#181818;stroke-width:1;" x1="83.48" x2="83.48" y1="31.53" y2="23.53"/><line style="stroke:#181818;stroke-width:1;" x1="84.48" x2="76.48" y1="27.53" y2="27.53"/><line style="stroke:#181818;stroke-width:1;" x1="102.55" x2="110.55" y1="27.53" y2="21.53"/><line style="stroke:#181818;stroke-width:1;" x1="102.55" x2="110.55" y1="27.53" y2="33.53"/><line style="stroke:#181818;stroke-width:1;" x1="102.55" x2="110.55" y1="27.53" y2="27.53"/><ellipse cx="96.55" cy="27.53" fill="none" rx="4" ry="4" style="stroke:#181818;stroke-width:1;"/></g><!--link library to book--><g class="link" data-entity-1="library" data-entity-2="book" data-source-line="16" data-uid="lnk6" id="link_library_book"><path codeLine="16" d="M67.56,55.42 C67.56,72.7 67.56,71.42 67.56,88.79" fill="none" id="library-book" style="stroke:#181818;stroke-width:1;"/><line style="stroke:#181818;stroke-width:1;" x1="63.56" x2="71.56" y1="51.42" y2="51.42"/><line style="stroke:#181818;stroke-width:1;" x1="63.56" x2="71.56" y1="54.42" y2="54.42"/><line style="stroke:#181818;stroke-width:1;" x1="67.56" x2="67.56" y1="55.42" y2="47.42"/><line style="stroke:#181818;stroke-width:1;" x1="67.56" x2="73.56" y1="98.79" y2="106.79"/><line style="stroke:#181818;stroke-width:1;" x1="67.56" x2="61.56" y1="98.79" y2="106.79"/><line style="stroke:#181818;stroke-width:1;" x1="67.56" x2="67.56" y1="98.79" y2="106.79"/><ellipse cx="67.56" cy="92.79" fill="none" rx="4" ry="4" style="stroke:#181818;stroke-width:1;"/></g><!--link member to book--><g class="link" data-entity-1="member" data-entity-2="book" data-source-line="17" data-uid="lnk7" id="link_member_book"><path codeLine="17" d="M119.56,55.42 C119.56,72.7 119.56,71.42 119.56,88.79" fill="none" id="member-book" style="stroke:#181818;stroke-width:1;"/><line style="stroke:#181818;stroke-width:1;" x1="115.56" x2="123.56" y1="51.42" y2="51.42"/><line style="stroke:#181818;stroke-width:1;" x1="115.56" x2="123.56" y1="54.42" y2="54.42"/><line style="stroke:#181818;stroke-width:1;" x1="119.56" x2="119.56" y1="55.42" y2="47.42"/><line style="stroke:#181818;stroke-width:1;" x1="119.56" x2="125.56" y1="98.79" y2="106.79"/><line style="stroke:#181818;stroke-width:1;" x1="119.56" x2="113.56" y1="98.79" y2="106.79"/><line style="stroke:#181818;stroke-width:1;" x1="119.56" x2="119.56" y1="98.79" y2="106.79"/><ellipse cx="119.56" cy="92.79" fill="none" rx="4" ry="4" style="stroke:#181818;stroke-width:1;"/></g><!--SRC=[ROv13eCW44NtSugvW3SmBkosbq2S204SCy32QE_UKZN1fYpV6rw-iIDXsmf5pgAfwr1RqPx0N29m-iM1ma0I4I0wEozAL43jLOou0NvUhxIRXFCyFjYpL9MddKpgVQRl7RogWBSpfNKXP4c60OwWjuCeMMyJJtMi-6S6PdVdS7NslP6oeU7j3DIgqF8PpdQ5tW00]--></g></svg>