<?xml version="1.0" encoding="UTF-8" standalone="no"?>
<!-- Created with Inkscape (http://www.inkscape.org/) -->

<svg
   width="196.37402mm"
   height="18.947563mm"
   viewBox="0 0 196.37403 18.947563"
   version="1.1"
   id="svg4439"
   xml:space="preserve"
   inkscape:version="1.2.2 (732a01da63, 2022-12-09)"
   sodipodi:docname="lang-bar-full-colour.svg"
   inkscape:export-filename="node.png"
   inkscape:export-xdpi="96"
   inkscape:export-ydpi="96"
   xmlns:inkscape="http://www.inkscape.org/namespaces/inkscape"
   xmlns:sodipodi="http://sodipodi.sourceforge.net/DTD/sodipodi-0.dtd"
   xmlns:xlink="http://www.w3.org/1999/xlink"
   xmlns="http://www.w3.org/2000/svg"
   xmlns:svg="http://www.w3.org/2000/svg"><sodipodi:namedview
     id="namedview4441"
     pagecolor="#ffffff"
     bordercolor="#000000"
     borderopacity="0.25"
     inkscape:showpageshadow="2"
     inkscape:pageopacity="0.0"
     inkscape:pagecheckerboard="0"
     inkscape:deskcolor="#d1d1d1"
     inkscape:document-units="mm"
     showgrid="false"
     inkscape:zoom="1.0444209"
     inkscape:cx="462.45723"
     inkscape:cy="18.191899"
     inkscape:window-width="1920"
     inkscape:window-height="1009"
     inkscape:window-x="-8"
     inkscape:window-y="-8"
     inkscape:window-maximized="1"
     inkscape:current-layer="layer1" /><defs
     id="defs4436"><linearGradient
       id="linearGradient2795"><stop
         style="stop-color:#b8b8b8;stop-opacity:0.49803922;"
         offset="0"
         id="stop2797" /><stop
         style="stop-color:#7f7f7f;stop-opacity:0;"
         offset="1"
         id="stop2799" /></linearGradient><linearGradient
       id="linearGradient2787"><stop
         style="stop-color:#7f7f7f;stop-opacity:0.5;"
         offset="0"
         id="stop2789" /><stop
         style="stop-color:#7f7f7f;stop-opacity:0;"
         offset="1"
         id="stop2791" /></linearGradient><linearGradient
       id="linearGradient3676"><stop
         style="stop-color:#b2b2b2;stop-opacity:0.5;"
         offset="0"
         id="stop3678" /><stop
         style="stop-color:#b3b3b3;stop-opacity:0;"
         offset="1"
         id="stop3680" /></linearGradient><linearGradient
       id="linearGradient3236"><stop
         style="stop-color:#f4f4f4;stop-opacity:1"
         offset="0"
         id="stop3244" /><stop
         style="stop-color:white;stop-opacity:1"
         offset="1"
         id="stop3240" /></linearGradient><linearGradient
       id="linearGradient4671"><stop
         style="stop-color:#ffd43b;stop-opacity:1;"
         offset="0"
         id="stop4673" /><stop
         style="stop-color:#ffe873;stop-opacity:1"
         offset="1"
         id="stop4675" /></linearGradient><linearGradient
       id="linearGradient4689"><stop
         style="stop-color:#5a9fd4;stop-opacity:1;"
         offset="0"
         id="stop4691" /><stop
         style="stop-color:#306998;stop-opacity:1;"
         offset="1"
         id="stop4693" /></linearGradient><linearGradient
       x1="224.23996"
       y1="144.75717"
       x2="-65.308502"
       y2="144.75717"
       id="linearGradient2987"
       xlink:href="#linearGradient4671"
       gradientUnits="userSpaceOnUse"
       gradientTransform="translate(100.2702,99.61116)" /><linearGradient
       x1="172.94208"
       y1="77.475983"
       x2="26.670298"
       y2="76.313133"
       id="linearGradient2990"
       xlink:href="#linearGradient4689"
       gradientUnits="userSpaceOnUse"
       gradientTransform="translate(100.2702,99.61116)" /><linearGradient
       inkscape:collect="always"
       xlink:href="#linearGradient4671"
       id="linearGradient2255"
       gradientUnits="userSpaceOnUse"
       gradientTransform="matrix(0.562541,0,0,0.567972,-11.5974,-7.60954)"
       x1="224.23996"
       y1="144.75717"
       x2="-65.308502"
       y2="144.75717" /><linearGradient
       inkscape:collect="always"
       xlink:href="#linearGradient4689"
       id="linearGradient2258"
       gradientUnits="userSpaceOnUse"
       gradientTransform="matrix(0.562541,0,0,0.567972,-11.5974,-7.60954)"
       x1="172.94208"
       y1="76.176224"
       x2="26.670298"
       y2="76.313133" /><radialGradient
       inkscape:collect="always"
       xlink:href="#linearGradient2795"
       id="radialGradient2801"
       cx="61.518883"
       cy="132.28575"
       fx="61.518883"
       fy="132.28575"
       r="29.036913"
       gradientTransform="matrix(1,0,0,0.177966,0,108.7434)"
       gradientUnits="userSpaceOnUse" /><linearGradient
       inkscape:collect="always"
       xlink:href="#linearGradient4671"
       id="linearGradient1475"
       gradientUnits="userSpaceOnUse"
       gradientTransform="matrix(0.07000499,0,0,0.07068085,10.291303,12.80773)"
       x1="150.96111"
       y1="192.35176"
       x2="112.03144"
       y2="137.27299" /><linearGradient
       inkscape:collect="always"
       xlink:href="#linearGradient4689"
       id="linearGradient1478"
       gradientUnits="userSpaceOnUse"
       gradientTransform="matrix(0.07000499,0,0,0.07068085,10.291303,12.80773)"
       x1="26.648937"
       y1="20.603781"
       x2="135.66525"
       y2="114.39767" /><linearGradient
       id="gradientFill-1"
       x1="0.7414425"
       x2="590.86261"
       y1="3.6658268"
       y2="593.78699"
       gradientUnits="userSpaceOnUse"
       spreadMethod="pad"
       gradientTransform="scale(1.2219423,0.81836924)"><stop
         offset="0"
         stop-color="rgb(203,206,208)"
         stop-opacity="1"
         id="stop4628" /><stop
         offset="1"
         stop-color="rgb(132,131,139)"
         stop-opacity="1"
         id="stop4630" /></linearGradient><linearGradient
       id="gradientFill-2"
       x1="301.02603"
       x2="703.0675"
       y1="151.4006"
       y2="553.44208"
       gradientUnits="userSpaceOnUse"
       spreadMethod="pad"
       gradientTransform="scale(0.9899476,1.0101545)"><stop
         offset="0"
         stop-color="rgb(39,109,195)"
         stop-opacity="1"
         id="stop4633" /><stop
         offset="1"
         stop-color="rgb(22,92,170)"
         stop-opacity="1"
         id="stop4635" /></linearGradient><linearGradient
       id="XMLID_17_-9"
       gradientUnits="userSpaceOnUse"
       x1="174.0737"
       y1="215.5488"
       x2="132.27631"
       y2="141.7533"><stop
         offset="0"
         style="stop-color:#FB7655"
         id="stop3272-4" /><stop
         offset="0"
         style="stop-color:#FB7655"
         id="stop3274-5" /><stop
         offset="0.41"
         style="stop-color:#E42B1E"
         id="stop3276-1" /><stop
         offset="0.99"
         style="stop-color:#990000"
         id="stop3278-0" /><stop
         offset="1"
         style="stop-color:#990000"
         id="stop3280-3" /></linearGradient><linearGradient
       id="XMLID_18_-7"
       gradientUnits="userSpaceOnUse"
       x1="194.895"
       y1="153.5576"
       x2="141.0276"
       y2="117.4093"><stop
         offset="0"
         style="stop-color:#871101"
         id="stop3285-8" /><stop
         offset="0"
         style="stop-color:#871101"
         id="stop3287-8" /><stop
         offset="0.99"
         style="stop-color:#911209"
         id="stop3289-6" /><stop
         offset="1"
         style="stop-color:#911209"
         id="stop3291-0" /></linearGradient><linearGradient
       id="XMLID_19_-4"
       gradientUnits="userSpaceOnUse"
       x1="151.79539"
       y1="217.7852"
       x2="97.929703"
       y2="181.638"><stop
         offset="0"
         style="stop-color:#871101"
         id="stop3296-6" /><stop
         offset="0"
         style="stop-color:#871101"
         id="stop3298-7" /><stop
         offset="0.99"
         style="stop-color:#911209"
         id="stop3300-6" /><stop
         offset="1"
         style="stop-color:#911209"
         id="stop3302-0" /></linearGradient><linearGradient
       id="XMLID_20_-9"
       gradientUnits="userSpaceOnUse"
       x1="38.696301"
       y1="127.3906"
       x2="47.046902"
       y2="181.66141"><stop
         offset="0"
         style="stop-color:#FFFFFF"
         id="stop3307-7" /><stop
         offset="0"
         style="stop-color:#FFFFFF"
         id="stop3309-5" /><stop
         offset="0.23"
         style="stop-color:#E57252"
         id="stop3311-9" /><stop
         offset="0.46"
         style="stop-color:#DE3B20"
         id="stop3313-7" /><stop
         offset="0.99"
         style="stop-color:#A60003"
         id="stop3315-8" /><stop
         offset="1"
         style="stop-color:#A60003"
         id="stop3317-5" /></linearGradient><linearGradient
       id="XMLID_21_-3"
       gradientUnits="userSpaceOnUse"
       x1="96.132797"
       y1="76.715302"
       x2="99.209602"
       y2="132.1021"><stop
         offset="0"
         style="stop-color:#FFFFFF"
         id="stop3322-3" /><stop
         offset="0"
         style="stop-color:#FFFFFF"
         id="stop3324-8" /><stop
         offset="0.23"
         style="stop-color:#E4714E"
         id="stop3326-3" /><stop
         offset="0.56"
         style="stop-color:#BE1A0D"
         id="stop3328-7" /><stop
         offset="0.99"
         style="stop-color:#A80D00"
         id="stop3330-9" /><stop
         offset="1"
         style="stop-color:#A80D00"
         id="stop3332-3" /></linearGradient><linearGradient
       id="XMLID_22_-7"
       gradientUnits="userSpaceOnUse"
       x1="147.103"
       y1="25.521"
       x2="156.3141"
       y2="65.216202"><stop
         offset="0"
         style="stop-color:#FFFFFF"
         id="stop3337-8" /><stop
         offset="0"
         style="stop-color:#FFFFFF"
         id="stop3339-7" /><stop
         offset="0.18"
         style="stop-color:#E46342"
         id="stop3341-4" /><stop
         offset="0.4"
         style="stop-color:#C82410"
         id="stop3343-1" /><stop
         offset="0.99"
         style="stop-color:#A80D00"
         id="stop3345-9" /><stop
         offset="1"
         style="stop-color:#A80D00"
         id="stop3347-0" /></linearGradient><linearGradient
       id="XMLID_23_-9"
       gradientUnits="userSpaceOnUse"
       x1="118.9761"
       y1="11.5415"
       x2="158.66859"
       y2="-8.3048"><stop
         offset="0"
         style="stop-color:#FFFFFF"
         id="stop3352-8" /><stop
         offset="0"
         style="stop-color:#FFFFFF"
         id="stop3354-8" /><stop
         offset="0.54"
         style="stop-color:#C81F11"
         id="stop3356-5" /><stop
         offset="0.99"
         style="stop-color:#BF0905"
         id="stop3358-8" /><stop
         offset="1"
         style="stop-color:#BF0905"
         id="stop3360-4" /></linearGradient><linearGradient
       id="XMLID_24_-3"
       gradientUnits="userSpaceOnUse"
       x1="3.9033"
       y1="113.5547"
       x2="7.1701999"
       y2="146.2628"><stop
         offset="0"
         style="stop-color:#FFFFFF"
         id="stop3365-7" /><stop
         offset="0"
         style="stop-color:#FFFFFF"
         id="stop3367-1" /><stop
         offset="0.31"
         style="stop-color:#DE4024"
         id="stop3369-3" /><stop
         offset="0.99"
         style="stop-color:#BF190B"
         id="stop3371-8" /><stop
         offset="1"
         style="stop-color:#BF190B"
         id="stop3373-0" /></linearGradient><linearGradient
       id="XMLID_25_-9"
       gradientUnits="userSpaceOnUse"
       x1="-18.5557"
       y1="155.10451"
       x2="135.0152"
       y2="-2.8092999"><stop
         offset="0"
         style="stop-color:#BD0012"
         id="stop3380-7" /><stop
         offset="0"
         style="stop-color:#BD0012"
         id="stop3382-9" /><stop
         offset="0.07"
         style="stop-color:#FFFFFF"
         id="stop3384-9" /><stop
         offset="0.17"
         style="stop-color:#FFFFFF"
         id="stop3386-3" /><stop
         offset="0.27"
         style="stop-color:#C82F1C"
         id="stop3388-2" /><stop
         offset="0.33"
         style="stop-color:#820C01"
         id="stop3390-4" /><stop
         offset="0.46"
         style="stop-color:#A31601"
         id="stop3392-3" /><stop
         offset="0.72"
         style="stop-color:#B31301"
         id="stop3394-7" /><stop
         offset="0.99"
         style="stop-color:#E82609"
         id="stop3396-1" /><stop
         offset="1"
         style="stop-color:#E82609"
         id="stop3398-2" /></linearGradient><linearGradient
       id="XMLID_26_-2"
       gradientUnits="userSpaceOnUse"
       x1="99.074699"
       y1="171.0332"
       x2="52.817699"
       y2="159.61659"><stop
         offset="0"
         style="stop-color:#8C0C01"
         id="stop3403-0" /><stop
         offset="0"
         style="stop-color:#8C0C01"
         id="stop3405-2" /><stop
         offset="0.54"
         style="stop-color:#990C00"
         id="stop3407-1" /><stop
         offset="0.99"
         style="stop-color:#A80D0E"
         id="stop3409-7" /><stop
         offset="1"
         style="stop-color:#A80D0E"
         id="stop3411-5" /></linearGradient><linearGradient
       id="XMLID_27_-1"
       gradientUnits="userSpaceOnUse"
       x1="178.52589"
       y1="115.5146"
       x2="137.43269"
       y2="78.683998"><stop
         offset="0"
         style="stop-color:#7E110B"
         id="stop3416-7" /><stop
         offset="0"
         style="stop-color:#7E110B"
         id="stop3418-4" /><stop
         offset="0.99"
         style="stop-color:#9E0C00"
         id="stop3420-1" /><stop
         offset="1"
         style="stop-color:#9E0C00"
         id="stop3422-7" /></linearGradient><linearGradient
       id="XMLID_28_-1"
       gradientUnits="userSpaceOnUse"
       x1="193.6235"
       y1="47.937"
       x2="173.15421"
       y2="26.053801"><stop
         offset="0"
         style="stop-color:#79130D"
         id="stop3427-1" /><stop
         offset="0"
         style="stop-color:#79130D"
         id="stop3429-1" /><stop
         offset="0.99"
         style="stop-color:#9E120B"
         id="stop3431-7" /><stop
         offset="1"
         style="stop-color:#9E120B"
         id="stop3433-0" /></linearGradient><radialGradient
       id="XMLID_29_-4"
       cx="143.8315"
       cy="79.388199"
       r="50.357601"
       gradientUnits="userSpaceOnUse"><stop
         offset="0"
         style="stop-color:#A80D00"
         id="stop3440-0" /><stop
         offset="0"
         style="stop-color:#A80D00"
         id="stop3442-8" /><stop
         offset="0.99"
         style="stop-color:#7E0E08"
         id="stop3444-5" /><stop
         offset="1"
         style="stop-color:#7E0E08"
         id="stop3446-1" /></radialGradient><radialGradient
       id="XMLID_30_-6"
       cx="74.0923"
       cy="145.75101"
       r="66.943703"
       gradientUnits="userSpaceOnUse"><stop
         offset="0"
         style="stop-color:#A30C00"
         id="stop3451-6" /><stop
         offset="0"
         style="stop-color:#A30C00"
         id="stop3453-2" /><stop
         offset="0.99"
         style="stop-color:#800E08"
         id="stop3455-1" /><stop
         offset="1"
         style="stop-color:#800E08"
         id="stop3457-9" /></radialGradient><linearGradient
       id="XMLID_31_-6"
       gradientUnits="userSpaceOnUse"
       x1="26.669901"
       y1="197.33591"
       x2="9.9886999"
       y2="140.742"><stop
         offset="0"
         style="stop-color:#8B2114"
         id="stop3462-4" /><stop
         offset="0"
         style="stop-color:#8B2114"
         id="stop3464-8" /><stop
         offset="0.43"
         style="stop-color:#9E100A"
         id="stop3466-0" /><stop
         offset="0.99"
         style="stop-color:#B3100C"
         id="stop3468-8" /><stop
         offset="1"
         style="stop-color:#B3100C"
         id="stop3470-1" /></linearGradient><linearGradient
       id="XMLID_32_-0"
       gradientUnits="userSpaceOnUse"
       x1="154.6411"
       y1="9.7979002"
       x2="192.039"
       y2="26.305901"><stop
         offset="0"
         style="stop-color:#B31000"
         id="stop3475-2" /><stop
         offset="0"
         style="stop-color:#B31000"
         id="stop3477-2" /><stop
         offset="0.44"
         style="stop-color:#910F08"
         id="stop3479-9" /><stop
         offset="0.99"
         style="stop-color:#791C12"
         id="stop3481-7" /><stop
         offset="1"
         style="stop-color:#791C12"
         id="stop3483-5" /></linearGradient><linearGradient
       y2="141.7533"
       x2="132.27631"
       y1="215.5488"
       x1="174.0737"
       gradientUnits="userSpaceOnUse"
       id="linearGradient3448"
       xlink:href="#XMLID_17_-9"
       inkscape:collect="always" /><clipPath
       clipPathUnits="userSpaceOnUse"
       id="clipPath3444">
      <path
   d="M 11.52,162 C 11.52,81.677 135.307,16.561 288,16.561 v 0 c 152.693,0 276.481,65.116 276.481,145.439 v 0 c 0,80.322 -123.788,145.439 -276.481,145.439 v 0 C 135.307,307.439 11.52,242.322 11.52,162"
   id="path3446" />
    </clipPath><radialGradient
       cx="0"
       cy="0"
       fx="0"
       fy="0"
       gradientTransform="matrix(363.05789,0,0,-363.05789,177.52002,256.30713)"
       gradientUnits="userSpaceOnUse"
       id="radialGradient3452"
       r="1"
       spreadMethod="pad">
      <stop
   id="stop3454"
   offset="0"
   style="stop-opacity:1;stop-color:#aeb2d5" />
      <stop
   id="stop3456"
   offset="0.3"
   style="stop-opacity:1;stop-color:#aeb2d5" />
      <stop
   id="stop3458"
   offset="0.75"
   style="stop-opacity:1;stop-color:#484c89" />
      <stop
   id="stop3460"
   offset="1"
   style="stop-opacity:1;stop-color:#484c89" />
    </radialGradient><clipPath
       clipPathUnits="userSpaceOnUse"
       id="clipPath3468">
      <path
   d="M 0,324 H 576 V 0 H 0 Z"
   id="path3470" />
    </clipPath><clipPath
       clipPathUnits="userSpaceOnUse"
       id="clipPath3480">
      <path
   d="M 0,324 H 576 V 0 H 0 Z"
   id="path3482" />
    </clipPath><filter
       inkscape:collect="always"
       style="color-interpolation-filters:sRGB"
       id="filter6047"
       x="-0.065306235"
       y="-0.08468828"
       width="1.1306125"
       height="1.1693766"><feGaussianBlur
         inkscape:collect="always"
         stdDeviation="19.621639"
         id="feGaussianBlur6049" /></filter><filter
       inkscape:collect="always"
       style="color-interpolation-filters:sRGB"
       id="filter6051"
       x="-0.065306233"
       y="-0.065488025"
       width="1.1306125"
       height="1.130976"><feGaussianBlur
         inkscape:collect="always"
         stdDeviation="5.3913018"
         id="feGaussianBlur6053" /></filter><filter
       inkscape:collect="always"
       style="color-interpolation-filters:sRGB"
       id="filter6055"
       x="-0.065306243"
       y="-0.17479925"
       width="1.1306125"
       height="1.3495985"><feGaussianBlur
         inkscape:collect="always"
         stdDeviation="5.5887928"
         id="feGaussianBlur6057" /></filter><filter
       inkscape:collect="always"
       style="color-interpolation-filters:sRGB"
       id="filter6059"
       x="-0.12146402"
       y="-0.065306249"
       width="1.242928"
       height="1.1306125"><feGaussianBlur
         inkscape:collect="always"
         stdDeviation="17.933504"
         id="feGaussianBlur6061" /></filter><filter
       inkscape:collect="always"
       style="color-interpolation-filters:sRGB"
       id="filter6063"
       x="-0.073398704"
       y="-0.065306236"
       width="1.1467974"
       height="1.1306125"><feGaussianBlur
         inkscape:collect="always"
         stdDeviation="7.8164114"
         id="feGaussianBlur6065" /></filter><filter
       inkscape:collect="always"
       style="color-interpolation-filters:sRGB"
       id="filter6067"
       x="-0.065305868"
       y="-0.12414689"
       width="1.1306117"
       height="1.2482938"><feGaussianBlur
         inkscape:collect="always"
         stdDeviation="15.046499"
         id="feGaussianBlur6069" /></filter></defs><g
     inkscape:label="Layer 1"
     inkscape:groupmode="layer"
     id="layer1"
     transform="translate(3.5309716,-13.169577)"><g
       id="g6099"
       transform="matrix(1.1930759,0,0,1.1930759,-18.035031,-2.7072388)"><path
         style="fill:url(#linearGradient1478);fill-opacity:1;stroke-width:0.124444"
         d="m 18.991189,14.264137 c -0.570409,0.0027 -1.115137,0.0513 -1.594442,0.136111 -1.411971,0.249449 -1.668331,0.771567 -1.668331,1.734442 v 1.271665 h 3.336662 v 0.423888 h -3.336662 -1.25222 c -0.969727,0 -1.818847,0.582862 -2.084441,1.691664 -0.306359,1.270945 -0.319948,2.064035 0,3.391106 0.237182,0.98782 0.803604,1.691664 1.77333,1.691664 h 1.147221 v -1.524442 c 0,-1.10132 0.952887,-2.072775 2.084441,-2.072775 h 3.332773 c 0.927725,0 1.668331,-0.763859 1.66833,-1.695553 V 16.13469 c 0,-0.904254 -0.76284,-1.583525 -1.66833,-1.734442 -0.573189,-0.09541 -1.167922,-0.138761 -1.738331,-0.136111 z m -1.804442,1.022777 c 0.344655,0 0.626111,0.286053 0.626111,0.637776 -10e-7,0.350477 -0.281456,0.633888 -0.626111,0.633888 -0.345889,0 -0.62611,-0.283411 -0.62611,-0.633888 0,-0.351723 0.280221,-0.637776 0.62611,-0.637776 z"
         id="path1948" /><path
         style="fill:url(#linearGradient1475);fill-opacity:1;stroke-width:0.124444"
         d="m 22.813961,17.830243 v 1.481664 c 0,1.148715 -0.973888,2.115552 -2.084441,2.115553 h -3.332773 c -0.912902,0 -1.668331,0.781321 -1.668331,1.695552 v 3.177217 c 0,0.904255 0.786312,1.436127 1.668331,1.695554 1.0562,0.310564 2.06904,0.366691 3.332773,0 0.840018,-0.243213 1.668331,-0.73268 1.66833,-1.695554 v -1.271664 h -3.332772 v -0.423888 h 3.332772 1.668332 c 0.969727,0 1.331087,-0.676406 1.668329,-1.691664 0.348361,-1.045193 0.333538,-2.050316 0,-3.391106 -0.239652,-0.965369 -0.697369,-1.691664 -1.668329,-1.691664 z m -1.874442,8.046098 c 0.34589,1e-6 0.62611,0.283412 0.62611,0.633888 0,0.351723 -0.28022,0.637777 -0.62611,0.637777 -0.344654,0 -0.62611,-0.286054 -0.62611,-0.637777 0,-0.350476 0.281455,-0.633888 0.62611,-0.633888 z"
         id="path1950" /></g><g
       id="g4656"
       transform="matrix(0.02324062,0,0,0.02324062,173.07834,16.112024)"
       style="opacity:0.261905;mix-blend-mode:normal;filter:url(#filter6047)"><path
         d="M 361.453,485.937 C 162.329,485.937 0.906,377.828 0.906,244.469 0.906,111.109 162.329,3 361.453,3 560.578,3 722,111.109 722,244.469 722,377.828 560.578,485.937 361.453,485.937 Z M 416.641,97.406 c -151.352,0 -274.047,73.908 -274.047,165.078 0,91.17 122.695,165.078 274.047,165.078 151.351,0 263.046,-50.529 263.046,-165.078 0,-114.513 -111.695,-165.078 -263.046,-165.078 z"
         fill="url(#gradientFill-1)"
         fill-rule="evenodd"
         id="path4640"
         style="fill:url(#gradientFill-1)" /><path
         d="m 550,377 c 0,0 21.822,6.585 34.5,13 4.399,2.226 12.01,6.668 17.5,12.5 5.378,5.712 8,11.5 8,11.5 L 696,559 557,559.062 492,437 c 0,0 -13.31,-22.869 -21.5,-29.5 -6.832,-5.531 -9.745,-7.5 -16.5,-7.5 -4.702,0 -33.026,0 -33.026,0 L 421,558.974 298,559.026 V 152.938 h 247 c 0,0 112.5,2.029 112.5,109.062 0,107.033 -107.5,115 -107.5,115 z m -53.5,-135.976 -74.463,-0.048 -0.037,69.05 74.5,-0.024 c 0,0 34.5,-0.107 34.5,-35.125 0,-35.722 -34.5,-33.853 -34.5,-33.853 z"
         fill="url(#gradientFill-2)"
         fill-rule="evenodd"
         id="path4642"
         style="fill:url(#gradientFill-2)" /></g><g
       style="overflow:visible;opacity:1;mix-blend-mode:normal;filter:url(#filter6051)"
       id="g4994"
       transform="matrix(0.08458422,0,0,0.08458422,73.911189,14.540614)"><polygon
         style="fill:url(#linearGradient3448);fill-rule:evenodd"
         clip-rule="evenodd"
         points="153.5,130.41 40.38,197.58 186.849,187.641 198.13,39.95 "
         id="polygon3282" /><polygon
         style="fill:url(#XMLID_18_-7);fill-rule:evenodd"
         clip-rule="evenodd"
         points="187.089,187.54 174.5,100.65 140.209,145.93 "
         id="polygon3293" /><polygon
         style="fill:url(#XMLID_19_-4);fill-rule:evenodd"
         clip-rule="evenodd"
         points="187.259,187.54 95.03,180.3 40.87,197.391 "
         id="polygon3304" /><polygon
         style="fill:url(#XMLID_20_-9);fill-rule:evenodd"
         clip-rule="evenodd"
         points="41,197.41 64.04,121.93 13.34,132.771 "
         id="polygon3319" /><polygon
         style="fill:url(#XMLID_21_-3);fill-rule:evenodd"
         clip-rule="evenodd"
         points="140.2,146.18 119,63.14 58.33,120.01 "
         id="polygon3334" /><polygon
         style="fill:url(#XMLID_22_-7);fill-rule:evenodd"
         clip-rule="evenodd"
         points="193.32,64.31 135.97,17.47 120,69.1 "
         id="polygon3349" /><polygon
         style="fill:url(#XMLID_23_-9);fill-rule:evenodd"
         clip-rule="evenodd"
         points="166.5,0.77 132.77,19.41 111.49,0.52 "
         id="polygon3362" /><polygon
         style="fill:url(#XMLID_24_-3);fill-rule:evenodd"
         clip-rule="evenodd"
         points="0,158.09 14.13,132.32 2.7,101.62 "
         id="polygon3375" /><path
         style="fill:#ffffff;fill-rule:evenodd"
         inkscape:connector-curvature="0"
         clip-rule="evenodd"
         d="m 1.94,100.65 11.5,32.62 49.97,-11.211 57.05,-53.02 L 136.56,17.9 111.209,0 68.109,16.13 C 54.53,28.76 28.18,53.75 27.23,54.22 26.29,54.7 9.83,85.81 1.94,100.65 Z"
         id="path3377" /><path
         style="fill:url(#XMLID_25_-9);fill-rule:evenodd"
         inkscape:connector-curvature="0"
         clip-rule="evenodd"
         d="m 42.32,42.05 c 29.43,-29.18 67.37,-46.42 81.93,-31.73 14.551,14.69 -0.88,50.39 -30.31,79.56 -29.43,29.17 -66.9,47.36 -81.45,32.67 -14.56,-14.68 0.4,-51.33 29.83,-80.5 z"
         id="path3400" /><path
         style="fill:url(#XMLID_26_-2);fill-rule:evenodd"
         inkscape:connector-curvature="0"
         clip-rule="evenodd"
         d="m 41,197.38 22.86,-75.72 75.92,24.39 C 112.33,171.79 81.8,193.55 41,197.38 Z"
         id="path3413" /><path
         style="fill:url(#XMLID_27_-1);fill-rule:evenodd"
         inkscape:connector-curvature="0"
         clip-rule="evenodd"
         d="m 120.56,68.89 19.49,77.2 C 162.98,121.98 183.56,96.06 193.639,64 Z"
         id="path3424" /><path
         style="fill:url(#XMLID_28_-1);fill-rule:evenodd"
         inkscape:connector-curvature="0"
         clip-rule="evenodd"
         d="m 193.44,64.39 c 7.8,-23.54 9.6,-57.31 -27.181,-63.58 l -30.18,16.67 z"
         id="path3435" /><path
         style="fill:#9e1209;fill-rule:evenodd"
         inkscape:connector-curvature="0"
         clip-rule="evenodd"
         d="m 0,157.75 c 1.08,38.851 29.11,39.43 41.05,39.771 L 13.47,133.11 Z"
         id="path3437" /><path
         style="fill:url(#XMLID_29_-4);fill-rule:evenodd"
         inkscape:connector-curvature="0"
         clip-rule="evenodd"
         d="m 120.669,69.01 c 17.62,10.83 53.131,32.58 53.851,32.98 1.119,0.63 15.31,-23.93 18.53,-37.81 z"
         id="path3448" /><path
         style="fill:url(#XMLID_30_-6);fill-rule:evenodd"
         inkscape:connector-curvature="0"
         clip-rule="evenodd"
         d="m 63.83,121.66 30.56,58.96 c 18.07,-9.8 32.22,-21.74 45.18,-34.53 z"
         id="path3459" /><path
         style="fill:url(#XMLID_31_-6);fill-rule:evenodd"
         inkscape:connector-curvature="0"
         clip-rule="evenodd"
         d="m 13.35,133.19 -4.33,51.56 c 8.17,11.16 19.41,12.13 31.2,11.26 -8.53,-21.23 -25.57,-63.68 -26.87,-62.82 z"
         id="path3472" /><path
         style="fill:url(#XMLID_32_-0);fill-rule:evenodd"
         inkscape:connector-curvature="0"
         clip-rule="evenodd"
         d="m 135.9,17.61 60.71,8.52 C 193.37,12.4 183.42,3.54 166.46,0.77 Z"
         id="path3485" /></g><g
       id="g5010"
       transform="matrix(0.04189668,0,0,0.04189668,53.68625,14.264023)"><path
         class="st0"
         d="M 0,200 V 0 H 400 V 400 H 0"
         id="path4998" /><path
         class="st1"
         d="M 87.7,200.7 V 217 h 52 v 148 h 36.9 V 217 h 52 v -16 c 0,-9 0,-16.3 -0.4,-16.5 0,-0.3 -31.7,-0.4 -70.2,-0.4 l -70,0.3 v 16.4 z M 321.4,184 c 10.2,2.4 18,7 25,14.3 3.7,4 9.2,11 9.6,12.8 0,0.6 -17.3,12.3 -27.8,18.8 -0.4,0.3 -2,-1.4 -3.6,-4 -5.2,-7.4 -10.5,-10.6 -18.8,-11.2 -12,-0.8 -20,5.5 -20,16 0,3.2 0.6,5 1.8,7.6 2.7,5.5 7.7,8.8 23.2,15.6 28.6,12.3 41,20.4 48.5,32 8.5,13 10.4,33.4 4.7,48.7 -6.4,16.7 -22,28 -44.3,31.7 -7,1.2 -23,1 -30.5,-0.3 -16,-3 -31.3,-11 -40.7,-21.3 -3.7,-4 -10.8,-14.7 -10.4,-15.4 l 3.8,-2.4 15,-8.7 11.3,-6.6 2.6,3.5 c 3.3,5.2 10.7,12.2 15,14.6 13,6.7 30.4,5.8 39,-2 3.7,-3.4 5.3,-7 5.3,-12 0,-4.6 -0.7,-6.7 -3,-10.2 -3.2,-4.4 -9.6,-8 -27.6,-16 -20.7,-8.8 -29.5,-14.4 -37.7,-23 -4.7,-5.2 -9,-13.3 -11,-20 -1.5,-5.8 -2,-20 -0.6,-25.7 4.3,-20 19.4,-34 41,-38 7,-1.4 23.5,-0.8 30.4,1 z"
         id="path5000" /></g><g
       id="g5024"
       transform="matrix(0.02660106,0,0,0.02660106,33.876152,14.264023)"><rect
         width="630"
         height="630"
         fill="#f7df1e"
         id="rect5012"
         x="0"
         y="0" /><path
         d="m 423.2,492.19 c 12.69,20.72 29.2,35.95 58.4,35.95 24.53,0 40.2,-12.26 40.2,-29.2 0,-20.3 -16.1,-27.49 -43.1,-39.3 l -14.8,-6.35 c -42.72,-18.2 -71.1,-41 -71.1,-89.2 0,-44.4 33.83,-78.2 86.7,-78.2 37.64,0 64.7,13.1 84.2,47.4 l -46.1,29.6 c -10.15,-18.2 -21.1,-25.37 -38.1,-25.37 -17.34,0 -28.33,11 -28.33,25.37 0,17.76 11,24.95 36.4,35.95 l 14.8,6.34 c 50.3,21.57 78.7,43.56 78.7,93 0,53.3 -41.87,82.5 -98.1,82.5 -54.98,0 -90.5,-26.2 -107.88,-60.54 z m -209.13,5.13 c 9.3,16.5 17.76,30.45 38.1,30.45 19.45,0 31.72,-7.61 31.72,-37.2 v -201.3 h 59.2 v 202.1 c 0,61.3 -35.94,89.2 -88.4,89.2 -47.4,0 -74.85,-24.53 -88.81,-54.075 z"
         id="path5014" /></g><g
       id="g5065"
       transform="matrix(0.08159527,0,0,0.08159527,136.84963,19.51558)"
       style="opacity:0.261905;mix-blend-mode:normal;filter:url(#filter6055)">
	<g
   id="g5034">
		<g
   id="g5032">
			<g
   id="g5030">
				<path
   class="st0"
   d="M 15.5,23.2 C 15.1,23.2 15,23 15.2,22.7 L 17.3,20 c 0.2,-0.3 0.7,-0.5 1.1,-0.5 h 35.7 c 0.4,0 0.5,0.3 0.3,0.6 l -1.7,2.6 c -0.2,0.3 -0.7,0.6 -1,0.6 z"
   id="path5028" />
			</g>
		</g>
	</g>
	<g
   id="g5042">
		<g
   id="g5040">
			<g
   id="g5038">
				<path
   class="st0"
   d="M 0.4,32.4 C 0,32.4 -0.1,32.2 0.1,31.9 l 2.1,-2.7 c 0.2,-0.3 0.7,-0.5 1.1,-0.5 h 45.6 c 0.4,0 0.6,0.3 0.5,0.6 l -0.8,2.4 c -0.1,0.4 -0.5,0.6 -0.9,0.6 z"
   id="path5036" />
			</g>
		</g>
	</g>
	<g
   id="g5050">
		<g
   id="g5048">
			<g
   id="g5046">
				<path
   class="st0"
   d="m 24.6,41.6 c -0.4,0 -0.5,-0.3 -0.3,-0.6 l 1.4,-2.5 c 0.2,-0.3 0.6,-0.6 1,-0.6 h 20 c 0.4,0 0.6,0.3 0.6,0.7 L 47.1,41 c 0,0.4 -0.4,0.7 -0.7,0.7 z"
   id="path5044" />
			</g>
		</g>
	</g>
	<g
   id="g5063">
		<g
   id="CXHf1q_3_">
			<g
   id="g5060">
				<g
   id="g5054">
					<path
   class="st0"
   d="m 128.4,21.4 c -6.3,1.6 -10.6,2.8 -16.8,4.4 -1.5,0.4 -1.6,0.5 -2.9,-1 -1.5,-1.7 -2.6,-2.8 -4.7,-3.8 -6.3,-3.1 -12.4,-2.2 -18.1,1.5 -6.8,4.4 -10.3,10.9 -10.2,19 0.1,8 5.6,14.6 13.5,15.7 6.8,0.9 12.5,-1.5 17,-6.6 0.9,-1.1 1.7,-2.3 2.7,-3.7 -3.6,0 -8.1,0 -19.3,0 -2.1,0 -2.6,-1.3 -1.9,-3 1.3,-3.1 3.7,-8.3 5.1,-10.9 0.3,-0.6 1,-1.6 2.5,-1.6 5.1,0 23.9,0 36.4,0 -0.2,2.7 -0.2,5.4 -0.6,8.1 -1.1,7.2 -3.8,13.8 -8.2,19.6 -7.2,9.5 -16.6,15.4 -28.5,17 C 84.6,77.4 75.5,75.5 67.5,69.5 60.1,63.9 55.9,56.5 54.8,47.3 53.5,36.4 56.7,26.6 63.3,18 70.4,8.7 79.8,2.8 91.3,0.7 c 9.4,-1.7 18.4,-0.6 26.5,4.9 5.3,3.5 9.1,8.3 11.6,14.1 0.6,0.9 0.2,1.4 -1,1.7 z"
   id="path5052" />
				</g>
				<g
   id="g5058">
					<path
   class="st0"
   d="m 161.5,76.7 c -9.1,-0.2 -17.4,-2.8 -24.4,-8.8 -5.9,-5.1 -9.6,-11.6 -10.8,-19.3 -1.8,-11.3 1.3,-21.3 8.1,-30.2 7.3,-9.6 16.1,-14.6 28,-16.7 10.2,-1.8 19.8,-0.8 28.5,5.1 7.9,5.4 12.8,12.7 14.1,22.3 1.7,13.5 -2.2,24.5 -11.5,33.9 -6.6,6.7 -14.7,10.9 -24,12.8 -2.7,0.5 -5.4,0.6 -8,0.9 z M 185.3,36.3 C 185.2,35 185.2,34 185,33 183.2,23.1 174.1,17.5 164.6,19.7 c -9.3,2.1 -15.3,8 -17.5,17.4 -1.8,7.8 2,15.7 9.2,18.9 5.5,2.4 11,2.1 16.3,-0.6 7.9,-4.1 12.2,-10.5 12.7,-19.1 z"
   id="path5056" />
				</g>
			</g>
		</g>
	</g>
</g><g
       style="overflow:visible;opacity:0.261905;mix-blend-mode:normal;filter:url(#filter6059)"
       id="g5140"
       transform="matrix(0.02542833,0,0,0.02542833,158.84862,14.264023)"><g
         id="g5119">
	<path
   fill-rule="evenodd"
   clip-rule="evenodd"
   fill="#0074bd"
   d="m 117.151,349.592 c 0,0 -17.265,10.049 12.301,13.44 35.824,4.09 54.13,3.501 93.596,-3.959 0,0 10.397,6.504 24.892,12.137 -88.501,37.917 -200.296,-2.197 -130.789,-21.618 z"
   id="path5093" />
	<path
   fill-rule="evenodd"
   clip-rule="evenodd"
   fill="#0074bd"
   d="m 106.331,300.104 c 0,0 -19.367,14.339 10.221,17.397 38.271,3.951 68.483,4.275 120.792,-5.792 0,0 7.218,7.332 18.585,11.339 -106.986,31.294 -226.147,2.462 -149.598,-22.944 z"
   id="path5095" />
	<path
   fill-rule="evenodd"
   clip-rule="evenodd"
   fill="#ea2d2e"
   d="m 197.494,216.145 c 21.818,25.115 -5.721,47.697 -5.721,47.697 0,0 55.367,-28.577 29.945,-64.38 -23.752,-33.373 -41.962,-49.951 56.623,-107.124 10e-4,0 -154.754,38.641 -80.847,123.807 z"
   id="path5097" />
	<path
   fill-rule="evenodd"
   clip-rule="evenodd"
   fill="#0074bd"
   d="m 314.542,386.202 c 0,0 12.781,10.536 -14.077,18.684 -51.071,15.469 -212.604,20.135 -257.47,0.619 -16.117,-7.02 14.121,-16.75 23.635,-18.805 9.92,-2.146 15.584,-1.754 15.584,-1.754 -17.937,-12.631 -115.935,24.807 -49.772,35.544 180.429,29.246 328.895,-13.173 282.1,-34.288 z"
   id="path5099" />
	<path
   fill-rule="evenodd"
   clip-rule="evenodd"
   fill="#0074bd"
   d="m 125.46,248.822 c 0,0 -82.155,19.519 -29.092,26.613 22.412,2.999 67.063,2.309 108.685,-1.183 34.006,-2.854 68.133,-8.958 68.133,-8.958 0,0 -11.982,5.14 -20.657,11.06 -83.444,21.947 -244.612,11.726 -198.207,-10.712 39.227,-18.977 71.138,-16.82 71.138,-16.82 z"
   id="path5101" />
	<path
   fill-rule="evenodd"
   clip-rule="evenodd"
   fill="#0074bd"
   d="m 272.846,331.198 c 84.818,-44.063 45.597,-86.412 18.223,-80.708 -6.694,1.397 -9.697,2.607 -9.697,2.607 0,0 2.494,-3.907 7.243,-5.588 54.155,-19.03 95.794,56.146 -17.464,85.919 -0.001,0 1.302,-1.18 1.695,-2.23 z"
   id="path5103" />
	<path
   fill-rule="evenodd"
   clip-rule="evenodd"
   fill="#ea2d2e"
   d="m 221.719,0 c 0,0 46.963,46.99 -44.557,119.227 -73.393,57.969 -16.734,91.009 -0.026,128.778 C 134.291,209.352 102.865,175.321 123.944,143.653 154.898,97.174 240.663,74.632 221.719,0 Z"
   id="path5105" />
	<path
   fill-rule="evenodd"
   clip-rule="evenodd"
   fill="#0074bd"
   d="m 133.799,450.637 c 81.397,5.204 206.426,-2.896 209.385,-41.415 0,0 -5.688,14.602 -67.276,26.188 -69.481,13.081 -155.197,11.558 -206.016,3.167 0,0 10.411,8.617 63.907,12.06 z"
   id="path5107" />
	<path
   fill-rule="evenodd"
   clip-rule="evenodd"
   fill="#ea2d2e"
   d="m 339.426,519.716 h -2.479 v -1.385 h 6.676 v 1.385 h -2.469 v 6.928 h -1.729 v -6.928 z m 13.33,0.351 h -0.032 l -2.461,6.576 h -1.132 l -2.446,-6.576 h -0.025 v 6.576 h -1.638 v -8.313 h 2.402 l 2.264,5.885 2.271,-5.885 h 2.388 v 8.313 h -1.59 v -6.576 z"
   id="path5109" />
	<path
   fill-rule="evenodd"
   clip-rule="evenodd"
   fill="#ea2d2e"
   d="m 120.461,597.813 c -7.676,6.654 -15.793,10.396 -23.079,10.396 -10.378,0 -16.007,-6.236 -16.007,-16.216 0,-10.803 6.027,-18.71 30.163,-18.71 h 8.923 z m 21.189,23.903 V 547.72 c 0,-18.915 -10.787,-31.396 -36.782,-31.396 -15.168,0 -28.467,3.75 -39.278,8.525 l 3.111,13.106 c 8.515,-3.127 19.526,-6.031 30.337,-6.031 14.978,0 21.423,6.031 21.423,18.505 v 9.356 h -7.485 c -36.383,0 -52.798,14.11 -52.798,35.336 0,18.285 10.819,28.682 31.185,28.682 13.088,0 22.87,-5.405 32.001,-13.315 l 1.663,11.228 z"
   id="path5111" />
	<path
   fill-rule="evenodd"
   clip-rule="evenodd"
   fill="#ea2d2e"
   d="M 212.362,621.716 H 185.939 L 154.132,518.214 h 23.077 l 19.743,63.6 4.391,19.109 c 9.965,-27.639 17.032,-55.701 20.566,-82.709 h 22.445 c -6.002,34.08 -16.831,71.492 -31.992,103.502 z"
   id="path5113" />
	<path
   fill-rule="evenodd"
   clip-rule="evenodd"
   fill="#ea2d2e"
   d="m 313.755,597.813 c -7.701,6.654 -15.82,10.396 -23.086,10.396 -10.382,0 -16.011,-6.236 -16.011,-16.216 0,-10.803 6.039,-18.71 30.154,-18.71 h 8.942 v 24.53 z m 21.196,23.903 V 547.72 c 0,-18.915 -10.818,-31.396 -36.789,-31.396 -15.188,0 -28.484,3.75 -39.295,8.525 l 3.116,13.106 c 8.519,-3.127 19.545,-6.031 30.355,-6.031 14.96,0 21.416,6.031 21.416,18.505 v 9.356 h -7.485 c -36.391,0 -52.801,14.11 -52.801,35.336 0,18.285 10.804,28.682 31.169,28.682 13.099,0 22.862,-5.405 32.018,-13.315 l 1.674,11.228 z"
   id="path5115" />
	<path
   fill-rule="evenodd"
   clip-rule="evenodd"
   fill="#ea2d2e"
   d="m 36.941,639.306 c -6.037,8.821 -15.8,15.809 -26.479,19.749 L 0,646.731 c 8.135,-4.178 15.103,-10.912 18.345,-17.182 2.796,-5.589 3.96,-12.773 3.96,-29.971 v -118.18 h 22.519 v 116.551 c 0,23.001 -1.836,32.3 -7.883,41.357 z"
   id="path5117" />
</g></g><g
       id="g5152"
       transform="matrix(0.05834123,0,0,0.05834123,116.69832,14.264023)"
       style="opacity:0.261905;mix-blend-mode:normal;filter:url(#filter6063)"><path
         d="m 255.569,84.452376 c -0.002,-4.83 -1.035,-9.098 -3.124,-12.761 -2.052,-3.602 -5.125,-6.621 -9.247,-9.008 -34.025,-19.619 -68.083,-39.178 -102.097,-58.8169999 -9.17,-5.294 -18.061,-5.101 -27.163,0.2689999 -13.543,7.987 -81.348,46.834 -101.553,58.537 -8.321,4.817 -12.37,12.189 -12.372,21.771 C 0,123.89838 0.013,163.35238 0,202.80838 c 0,4.724 0.991,8.909 2.988,12.517 2.053,3.711 5.169,6.813 9.386,9.254 20.206,11.703 88.02,50.547 101.56,58.536 9.106,5.373 17.997,5.565 27.17,0.269 34.015,-19.64 68.075,-39.198 102.105,-58.817 4.217,-2.44 7.333,-5.544 9.386,-9.252 1.994,-3.608 2.987,-7.793 2.987,-12.518 0,0 0,-78.889 -0.013,-118.345004"
         fill="#a179dc"
         fill-rule="nonzero"
         id="path5142" /><path
         d="m 128.182,143.24138 -125.194,72.084 c 2.053,3.711 5.169,6.813 9.386,9.254 20.206,11.703 88.02,50.547 101.56,58.536 9.106,5.373 17.997,5.565 27.17,0.269 34.015,-19.64 68.075,-39.198 102.105,-58.817 4.217,-2.44 7.333,-5.544 9.386,-9.252 l -124.413,-72.074"
         fill="#280068"
         fill-rule="nonzero"
         id="path5144" /><path
         d="m 255.569,84.452376 c -0.002,-4.83 -1.035,-9.098 -3.124,-12.761 l -124.263,71.550004 124.413,72.074 c 1.994,-3.608 2.985,-7.793 2.987,-12.518 0,0 0,-78.889 -0.013,-118.345004"
         fill="#390091"
         fill-rule="nonzero"
         id="path5146" /><path
         d="m 201.89233,116.29401 v 13.47368 h 13.47368 v -13.47368 h 6.73684 v 13.47368 h 13.47369 v 6.73684 h -13.47369 v 13.47369 h 13.47369 v 6.73684 h -13.47369 v 13.47368 h -6.73684 v -13.47368 h -13.47368 v 13.47368 h -6.73685 V 156.71506 H 181.6818 v -6.73684 h 13.47368 V 136.50453 H 181.6818 v -6.73684 h 13.47368 v -13.47368 z m 13.47368,20.21052 h -13.47368 v 13.47369 h 13.47368 z"
         fill="#ffffff"
         id="path5148" /><path
         d="m 128.45675,48.625876 c 35.14377,0 65.82713,19.086298 82.26181,47.456067 l -0.16037,-0.273067 -41.34857,23.808284 C 161.06296,105.82355 146.12814,96.515072 128.99638,96.323372 l -0.53963,-0.003 c -26.12557,0 -47.306079,21.179388 -47.306079,47.304968 0,8.54361 2.277774,16.5522 6.238976,23.46947 8.154098,14.23525 23.482903,23.83661 41.067103,23.83661 17.69277,0 33.10889,-9.72336 41.22157,-24.11084 l -0.19713,0.34532 41.28649,23.91803 c -16.2544,28.12956 -46.51741,47.15695 -81.2527,47.53619 l -1.05823,0.006 c -35.25458,0 -66.025247,-19.20383 -82.41851,-47.72358 -8.002993,-13.92297 -12.582048,-30.06439 -12.582048,-47.27698 0,-52.466058 42.532268,-94.999446 95.000558,-94.999446 z"
         fill="#ffffff"
         fill-rule="nonzero"
         id="path5150" /></g><g
       id="g3438"
       transform="matrix(0.03030732,0,0,-0.03030732,94.350003,27.553143)"
       style="opacity:0.261905;mix-blend-mode:normal;filter:url(#filter6067)">
    <g
   id="g3440">
      <g
   clip-path="url(#clipPath3444)"
   id="g3442">
        <g
   id="g3448">
          <g
   id="g3450">
            <path
   d="M 11.52,162 C 11.52,81.677 135.307,16.561 288,16.561 v 0 c 152.693,0 276.481,65.116 276.481,145.439 v 0 c 0,80.322 -123.788,145.439 -276.481,145.439 v 0 C 135.307,307.439 11.52,242.322 11.52,162"
   id="path3462"
   style="fill:url(#radialGradient3452);stroke:none" />
          </g>
        </g>
      </g>
    </g>
    <g
   id="g3464">
      <g
   clip-path="url(#clipPath3468)"
   id="g3466">
        <g
   id="g3472"
   transform="translate(288,27.3594)">
          <path
   d="M 0,0 C 146.729,0 265.68,60.281 265.68,134.641 265.68,209 146.729,269.282 0,269.282 -146.729,269.282 -265.68,209 -265.68,134.641 -265.68,60.281 -146.729,0 0,0"
   id="path3474"
   style="fill:#777bb3;fill-opacity:1;fill-rule:nonzero;stroke:none" />
        </g>
      </g>
    </g>
    <g
   id="g3476">
      <g
   clip-path="url(#clipPath3480)"
   id="g3478">
        <g
   id="g3484"
   transform="translate(161.7344,145.3066)">
          <path
   d="m 0,0 c 12.065,0 21.072,2.225 26.771,6.611 5.638,4.341 9.532,11.862 11.573,22.353 1.903,9.806 1.178,16.653 -2.154,20.348 C 32.783,53.086 25.417,55 14.297,55 H -4.984 L -15.673,0 Z m -63.063,-67.75 c -0.895,0 -1.745,0.4 -2.314,1.092 -0.57,0.691 -0.801,1.601 -0.63,2.48 L -37.679,81.573 C -37.405,82.982 -36.17,84 -34.734,84 H 26.32 C 45.508,84 59.79,78.79 68.767,68.513 77.792,58.182 80.579,43.741 77.05,25.592 75.614,18.198 73.144,11.331 69.709,5.183 66.27,-0.972 61.725,-6.667 56.198,-11.747 49.582,-17.939 42.094,-22.429 33.962,-25.071 25.959,-27.678 15.681,-29 3.414,-29 h -24.722 l -7.06,-36.322 c -0.274,-1.41 -1.508,-2.428 -2.944,-2.428 z"
   id="path3486"
   style="fill:#000000;fill-opacity:1;fill-rule:nonzero;stroke:none" />
        </g>
        <g
   id="g3488"
   transform="translate(159.2236,197.3071)">
          <path
   d="m 0,0 h 16.808 c 13.421,0 18.083,-2.945 19.667,-4.7 2.628,-2.914 3.124,-9.058 1.435,-17.767 C 36.012,-32.217 32.494,-39.13 27.452,-43.012 22.29,-46.986 13.898,-49 2.511,-49 H -9.523 Z m 28.831,35 h -61.055 c -2.872,0 -5.341,-2.036 -5.889,-4.855 l -28.328,-145.751 c -0.342,-1.759 0.12,-3.578 1.259,-4.961 1.14,-1.383 2.838,-2.183 4.63,-2.183 h 31.75 c 2.873,0 5.342,2.036 5.89,4.855 L -16.324,-84 H 5.925 c 12.582,0 23.174,1.372 31.479,4.077 8.541,2.775 16.399,7.48 23.354,13.984 5.752,5.292 10.49,11.232 14.08,17.657 3.591,6.427 6.171,13.594 7.668,21.302 3.715,19.104 0.697,34.402 -8.969,45.466 C 63.965,29.444 48.923,35 28.831,35 M -16.802,-55 H 2.511 c 12.801,0 22.336,2.411 28.601,7.234 6.266,4.824 10.492,12.875 12.688,24.157 2.101,10.832 1.144,18.476 -2.871,22.929 C 36.909,3.773 28.87,6 16.808,6 H -4.946 L -16.802,-55 M 28.831,29 C 47.198,29 60.597,24.18 69.019,14.539 77.44,4.898 79.976,-8.559 76.616,-25.836 75.233,-32.953 72.894,-39.46 69.601,-45.355 66.304,-51.254 61.999,-56.648 56.679,-61.539 50.339,-67.472 43.296,-71.7 35.546,-74.218 27.796,-76.743 17.925,-78 5.925,-78 h -27.196 l -7.531,-38.75 h -31.75 L -32.224,29 h 61.055"
   id="path3490"
   style="fill:#ffffff;fill-opacity:1;fill-rule:nonzero;stroke:none" />
        </g>
        <g
   id="g3492"
   transform="translate(311.583,116.3066)">
          <path
   d="m 0,0 c -0.896,0 -1.745,0.4 -2.314,1.092 -0.571,0.691 -0.802,1.6 -0.631,2.48 L 9.586,68.061 C 10.778,74.194 10.484,78.596 8.759,80.456 7.703,81.593 4.531,83.5 -4.848,83.5 H -27.55 L -43.305,2.428 C -43.579,1.018 -44.814,0 -46.25,0 h -31.5 c -0.896,0 -1.745,0.4 -2.315,1.092 -0.57,0.691 -0.801,1.601 -0.63,2.48 l 28.328,145.751 c 0.274,1.409 1.509,2.427 2.945,2.427 h 31.5 c 0.896,0 1.745,-0.4 2.315,-1.091 0.57,-0.692 0.801,-1.601 0.63,-2.481 L -21.813,113 H 2.609 c 18.605,0 31.221,-3.28 38.569,-10.028 7.49,-6.884 9.827,-17.891 6.947,-32.719 L 34.945,2.428 C 34.671,1.018 33.437,0 32,0 Z"
   id="path3494"
   style="fill:#000000;fill-opacity:1;fill-rule:nonzero;stroke:none" />
        </g>
        <g
   id="g3496"
   transform="translate(293.6611,271.0571)">
          <path
   d="m 0,0 h -31.5 c -2.873,0 -5.342,-2.036 -5.89,-4.855 l -28.328,-145.751 c -0.342,-1.759 0.12,-3.578 1.26,-4.961 1.14,-1.383 2.838,-2.183 4.63,-2.183 h 31.5 c 2.872,0 5.342,2.036 5.89,4.855 l 15.283,78.645 h 20.229 c 9.363,0 11.328,-2 11.407,-2.086 0.568,-0.611 1.315,-3.441 0.082,-9.781 l -12.531,-64.489 c -0.342,-1.759 0.12,-3.578 1.26,-4.961 1.14,-1.383 2.838,-2.183 4.63,-2.183 h 32 c 2.872,0 5.342,2.036 5.89,4.855 l 13.179,67.825 c 3.093,15.921 0.447,27.864 -7.861,35.5 -7.928,7.281 -21.208,10.82 -40.599,10.82 H -0.253 L 5.89,-7.145 C 6.231,-5.386 5.77,-3.566 4.63,-2.184 3.49,-0.801 1.792,0 0,0 m 0,-6 -7.531,-38.75 h 28.062 c 17.657,0 29.836,-3.082 36.539,-9.238 6.703,-6.16 8.711,-16.141 6.032,-29.938 l -13.18,-67.824 h -32 l 12.531,64.488 c 1.426,7.336 0.902,12.34 -1.574,15.008 -2.477,2.668 -7.746,4.004 -15.805,4.004 h -25.176 l -16.226,-83.5 h -31.5 L -31.5,-6 H 0"
   id="path3498"
   style="fill:#ffffff;fill-opacity:1;fill-rule:nonzero;stroke:none" />
        </g>
        <g
   id="g3500"
   transform="translate(409.5498,145.3066)">
          <path
   d="m 0,0 c 12.065,0 21.072,2.225 26.771,6.611 5.638,4.34 9.532,11.861 11.574,22.353 1.903,9.806 1.178,16.653 -2.155,20.348 C 32.783,53.086 25.417,55 14.297,55 H -4.984 L -15.673,0 Z m -63.062,-67.75 c -0.895,0 -1.745,0.4 -2.314,1.092 -0.57,0.691 -0.802,1.601 -0.631,2.48 L -37.679,81.573 C -37.404,82.982 -36.17,84 -34.733,84 H 26.32 C 45.509,84 59.79,78.79 68.768,68.513 77.793,58.183 80.579,43.742 77.051,25.592 75.613,18.198 73.144,11.331 69.709,5.183 66.27,-0.972 61.725,-6.667 56.198,-11.747 49.582,-17.939 42.094,-22.429 33.962,-25.071 25.959,-27.678 15.681,-29 3.414,-29 h -24.723 l -7.057,-36.322 c -0.275,-1.41 -1.509,-2.428 -2.946,-2.428 z"
   id="path3502"
   style="fill:#000000;fill-opacity:1;fill-rule:nonzero;stroke:none" />
        </g>
        <g
   id="g3504"
   transform="translate(407.0391,197.3071)">
          <path
   d="M 0,0 H 16.808 C 30.229,0 34.891,-2.945 36.475,-4.7 39.104,-7.614 39.6,-13.758 37.91,-22.466 36.012,-32.217 32.493,-39.13 27.452,-43.012 22.29,-46.986 13.898,-49 2.511,-49 H -9.522 Z m 28.831,35 h -61.054 c -2.872,0 -5.341,-2.036 -5.889,-4.855 L -66.44,-115.606 c -0.342,-1.759 0.12,-3.578 1.259,-4.961 1.14,-1.383 2.838,-2.183 4.63,-2.183 h 31.75 c 2.872,0 5.342,2.036 5.89,4.855 L -16.324,-84 H 5.925 c 12.582,0 23.174,1.372 31.479,4.077 8.541,2.775 16.401,7.481 23.356,13.986 5.752,5.291 10.488,11.23 14.078,17.655 3.591,6.427 6.171,13.594 7.668,21.302 3.715,19.105 0.697,34.403 -8.969,45.467 C 63.965,29.444 48.924,35 28.831,35 M -16.801,-55 H 2.511 c 12.801,0 22.336,2.411 28.601,7.234 6.267,4.824 10.492,12.875 12.688,24.157 2.102,10.832 1.145,18.476 -2.871,22.929 C 36.909,3.773 28.87,6 16.808,6 H -4.946 L -16.801,-55 M 28.831,29 C 47.198,29 60.597,24.18 69.019,14.539 77.441,4.898 79.976,-8.559 76.616,-25.836 75.233,-32.953 72.894,-39.46 69.601,-45.355 66.304,-51.254 61.999,-56.648 56.679,-61.539 50.339,-67.472 43.296,-71.7 35.546,-74.218 27.796,-76.743 17.925,-78 5.925,-78 h -27.196 l -7.53,-38.75 h -31.75 L -32.223,29 h 61.054"
   id="path3506"
   style="fill:#ffffff;fill-opacity:1;fill-rule:nonzero;stroke:none" />
        </g>
      </g>
    </g>
  </g><path
       d="m 23.424735,31.004373 c -0.229813,0 -0.444306,-0.06129 -0.643477,-0.16853 l -2.037678,-1.21035 c -0.306419,-0.16853 -0.153209,-0.229814 -0.06129,-0.260455 0.413666,-0.137888 0.490269,-0.16853 0.919254,-0.413665 0.04597,-0.03065 0.107247,-0.01532 0.15321,0.01532 l 1.56273,0.934575 c 0.06129,0.03065 0.137888,0.03065 0.183851,0 l 6.113035,-3.539126 c 0.06129,-0.03065 0.09192,-0.09192 0.09192,-0.16853 v -7.062929 c 0,-0.07661 -0.03064,-0.137889 -0.09192,-0.16853 l -6.113035,-3.523804 c -0.06129,-0.03065 -0.137888,-0.03065 -0.183851,0 l -6.113035,3.523804 c -0.06129,0.03065 -0.09193,0.107245 -0.09193,0.16853 v 7.062929 c 0,0.06129 0.03065,0.137888 0.09193,0.16853 l 1.669977,0.965216 c 0.903933,0.459626 1.470806,-0.07661 1.470806,-0.612836 v -6.971004 c 0,-0.09192 0.07661,-0.183851 0.183851,-0.183851 h 0.781365 c 0.09192,0 0.183851,0.0766 0.183851,0.183851 v 6.971004 c 0,1.210351 -0.658799,1.915112 -1.807866,1.915112 -0.35238,0 -0.628156,0 -1.409522,-0.383022 l -1.608689,-0.919255 c -0.398344,-0.229813 -0.643478,-0.658798 -0.643478,-1.118425 v -7.062929 c 0,-0.459628 0.245134,-0.888612 0.643478,-1.118425 l 6.113034,-3.539127 c 0.383022,-0.214491 0.903933,-0.214491 1.286956,0 l 6.113033,3.539127 c 0.398343,0.229813 0.643478,0.658797 0.643478,1.118425 v 7.062929 c 0,0.459627 -0.245135,0.888612 -0.643478,1.118425 l -6.113033,3.539125 c -0.199173,0.09192 -0.428987,0.137889 -0.643479,0.137889 z m 1.88447,-4.856722 c -2.681156,0 -3.232707,-1.225671 -3.232707,-2.267492 0,-0.09192 0.07661,-0.18385 0.183849,-0.18385 h 0.796686 c 0.09192,0 0.168531,0.06129 0.168531,0.153209 0.122567,0.812007 0.474948,1.210351 2.098962,1.210351 1.286954,0 1.838507,-0.291098 1.838507,-0.980537 0,-0.398343 -0.15321,-0.689441 -2.160246,-0.888612 -1.669977,-0.168531 -2.711796,-0.536231 -2.711796,-1.869148 0,-1.240993 1.041819,-1.976395 2.788401,-1.976395 1.961074,0 2.926289,0.674118 3.048856,2.144924 0,0.04597 -0.01532,0.09192 -0.04597,0.137888 -0.03065,0.03065 -0.07661,0.06129 -0.122567,0.06129 h -0.796684 c -0.07661,0 -0.153209,-0.06129 -0.16853,-0.137889 -0.18385,-0.842648 -0.658797,-1.118425 -1.91511,-1.118425 -1.409522,0 -1.578052,0.49027 -1.578052,0.85797 0,0.444306 0.199172,0.582195 2.098962,0.827329 1.884469,0.245134 2.77308,0.597514 2.77308,1.91511 -0.01532,1.348239 -1.118423,2.114283 -3.064177,2.114283 z"
       fill="#539e43"
       id="path910"
       style="stroke-width:0.0578124" /></g><style
     id="style4996">.st0{fill:#007acc}.st1{fill:#fff}</style><style
     type="text/css"
     id="style5026">
	.st0{fill:#00ACD7;}
</style></svg>
